<svg width="192" height="192" viewBox="0 0 192 192" fill="none" xmlns="http://www.w3.org/2000/svg">
<rect width="192" height="192" rx="96" fill="white"/>
<rect width="26.5241" height="74.9936" rx="11.8555" transform="matrix(0.903139 -0.429348 -0.429348 -0.903139 134.045 154.703)" fill="#5D2FFF"/>
<path d="M55.7622 85.3397C65.5657 64.718 90.2303 55.9481 110.852 65.7515C131.474 75.555 140.244 100.22 130.44 120.841L130.324 121.082C120.483 141.451 96.084 150.126 75.5923 140.543L75.3504 140.429C54.8093 130.664 46.0275 106.154 55.6482 85.5816L55.7622 85.3397ZM99.3776 89.888C92.0861 86.4217 83.3651 89.5226 79.8987 96.8141C76.4324 104.106 79.5333 112.827 86.8248 116.293C94.1164 119.759 102.837 116.658 106.304 109.367C109.77 102.075 106.669 93.3544 99.3776 89.888Z" fill="url(#paint0_linear_22_2)"/>
<rect x="134.045" y="51.4775" width="26.5241" height="74.9936" rx="11.8555" transform="rotate(25.4262 134.045 51.4775)" fill="#7C57FD"/>
<path d="M85.5487 90.4731C83.5792 91.6517 81.913 93.2751 80.6834 95.2132C79.4537 97.1513 78.695 99.3504 78.4677 101.634C78.2404 103.918 78.5509 106.224 79.3744 108.366C80.198 110.509 81.5115 112.429 83.2102 113.972C84.9088 115.516 86.9452 116.641 89.1564 117.256C91.2985 117.852 93.547 117.955 95.7327 117.557L95.9441 117.517C98.1256 117.086 100.18 116.167 101.954 114.83L102.125 114.699C103.937 113.29 105.394 111.476 106.379 109.404L130.438 120.841C127.667 126.67 123.571 131.769 118.476 135.73C113.381 139.691 107.429 142.404 101.098 143.653L100.801 143.71C94.6609 144.874 88.337 144.631 82.3045 143L82.0128 142.92C75.8927 141.216 70.2488 138.126 65.5183 133.889L65.2938 133.687C60.5925 129.414 56.9399 124.117 54.6182 118.206L54.5087 117.924C52.2293 111.995 51.3476 105.621 51.9302 99.2973L51.9591 98.9963C52.5982 92.5745 54.7318 86.3913 58.1891 80.9419C61.6464 75.4926 66.3315 70.9282 71.8692 67.6143L85.5487 90.4731Z" fill="#7C57FD"/>
<path d="M34.9961 61.5637C34.9961 59.3442 36.7954 57.5449 39.0149 57.5449H50.368C52.5876 57.5449 54.3868 59.3442 54.3868 61.5637V76.9357H39.0149C36.7954 76.9357 34.9961 75.1364 34.9961 72.9169V61.5637Z" fill="#5D2FFF"/>
<path d="M57.4004 42.1731C57.4004 39.9536 59.1997 38.1543 61.4192 38.1543H72.7723C74.9918 38.1543 76.7911 39.9536 76.7911 42.1731V57.545H61.4192C59.1997 57.545 57.4004 55.7458 57.4004 53.5262V42.1731Z" fill="#5D2FFF"/>
<defs>
<linearGradient id="paint0_linear_22_2" x1="97.5897" y1="97.1589" x2="113.46" y2="104.259" gradientUnits="userSpaceOnUse">
<stop stop-color="#7C57FD"/>
<stop offset="1" stop-color="#5D2FFF"/>
</linearGradient>
</defs>
</svg>
