<svg width="152" height="34" viewBox="0 0 152 34" fill="none" xmlns="http://www.w3.org/2000/svg">
<path d="M60.4912 8.1265C62.3594 8.1265 63.9919 8.50518 65.3888 9.26253C66.8025 10.0199 67.888 11.0718 68.6454 12.4182C69.4027 13.7646 69.7814 15.2961 69.7814 17.0128C69.7814 18.7126 69.4027 20.2441 68.6454 21.6074C67.888 22.9706 66.8025 24.0477 65.3888 24.8387C63.9919 25.6129 62.3594 26 60.4912 26H53.0439V8.1265H60.4912ZM59.9863 21.0015C61.2486 21.0015 62.25 20.6565 62.9905 19.9664C63.731 19.2764 64.1013 18.2918 64.1013 17.0128C64.1013 15.7337 63.731 14.7491 62.9905 14.0591C62.25 13.3691 61.2486 13.024 59.9863 13.024H58.6483V21.0015H59.9863Z" fill="#5D2FFF"/>
<path d="M85.589 18.7547C85.589 19.1418 85.5637 19.512 85.5132 19.8655H76.5007C76.5849 21.094 77.0982 21.7083 78.0407 21.7083C78.6466 21.7083 79.0842 21.4306 79.3534 20.8753H85.286C85.0841 21.8851 84.6549 22.7939 83.9985 23.6017C83.359 24.3927 82.5427 25.0239 81.5498 25.4951C80.5736 25.9495 79.4965 26.1767 78.3184 26.1767C76.9047 26.1767 75.6424 25.8822 74.5316 25.2931C73.4377 24.7041 72.5793 23.8626 71.9566 22.7686C71.3508 21.6579 71.0478 20.3619 71.0478 18.8809C71.0478 17.3999 71.3508 16.1124 71.9566 15.0184C72.5793 13.9076 73.4377 13.0577 74.5316 12.4687C75.6424 11.8796 76.9047 11.5851 78.3184 11.5851C79.7321 11.5851 80.986 11.8796 82.0799 12.4687C83.1907 13.0409 84.049 13.8655 84.6549 14.9427C85.2776 16.0198 85.589 17.2905 85.589 18.7547ZM79.9088 17.4167C79.9088 16.9454 79.7574 16.592 79.4544 16.3564C79.1515 16.1039 78.7728 15.9777 78.3184 15.9777C77.3254 15.9777 76.7448 16.4574 76.5765 17.4167H79.9088Z" fill="#5D2FFF"/>
<path d="M94.5815 20.6733L96.8536 11.7618H102.811L98.0654 26H91.0725L86.3264 11.7618H92.2842L94.5815 20.6733Z" fill="#5D2FFF"/>
<path d="M114.523 26L107.277 17.9721V26H104.98V8.4042H107.277V16.5584L114.548 8.4042H117.451L109.474 17.2147L117.527 26H114.523Z" fill="#7C57FD"/>
<path d="M121.279 9.9189C120.841 9.9189 120.471 9.76743 120.168 9.46449C119.865 9.16155 119.714 8.79129 119.714 8.35371C119.714 7.91613 119.865 7.54587 120.168 7.24292C120.471 6.93998 120.841 6.78851 121.279 6.78851C121.7 6.78851 122.053 6.93998 122.339 7.24292C122.642 7.54587 122.794 7.91613 122.794 8.35371C122.794 8.79129 122.642 9.16155 122.339 9.46449C122.053 9.76743 121.7 9.9189 121.279 9.9189ZM122.39 12.1657V26H120.092V12.1657H122.39Z" fill="#7C57FD"/>
<path d="M129.107 14.0591V22.2132C129.107 22.8864 129.25 23.3661 129.536 23.6522C129.823 23.9215 130.319 24.0561 131.026 24.0561H132.717V26H130.647C129.368 26 128.409 25.7055 127.769 25.1164C127.13 24.5274 126.81 23.5596 126.81 22.2132V14.0591H125.018V12.1657H126.81V8.68189H129.107V12.1657H132.717V14.0591H129.107Z" fill="#7C57FD"/>
<path d="M134.642 19.0324C134.642 17.6186 134.929 16.3816 135.501 15.3213C136.073 14.2442 136.856 13.4111 137.849 12.8221C138.858 12.233 139.978 11.9385 141.206 11.9385C142.418 11.9385 143.47 12.1994 144.362 12.7211C145.254 13.2428 145.919 13.8992 146.356 14.6902V12.1657H148.679V26H146.356V23.425C145.902 24.2329 145.22 24.9061 144.311 25.4446C143.419 25.9663 142.376 26.2272 141.181 26.2272C139.952 26.2272 138.842 25.9243 137.849 25.3184C136.856 24.7125 136.073 23.8626 135.501 22.7686C134.929 21.6747 134.642 20.4293 134.642 19.0324ZM146.356 19.0576C146.356 18.0142 146.146 17.1053 145.725 16.3311C145.304 15.557 144.732 14.9679 144.008 14.564C143.302 14.1432 142.519 13.9329 141.661 13.9329C140.802 13.9329 140.02 14.1348 139.313 14.5387C138.606 14.9427 138.042 15.5317 137.621 16.3059C137.201 17.0801 136.99 17.9889 136.99 19.0324C136.99 20.0927 137.201 21.0183 137.621 21.8093C138.042 22.5835 138.606 23.181 139.313 23.6017C140.02 24.0056 140.802 24.2076 141.661 24.2076C142.519 24.2076 143.302 24.0056 144.008 23.6017C144.732 23.181 145.304 22.5835 145.725 21.8093C146.146 21.0183 146.356 20.1011 146.356 19.0576Z" fill="#7C57FD"/>
<rect width="7.33167" height="20.7294" rx="3.27703" transform="matrix(0.903139 -0.429348 -0.429348 -0.903139 31.3785 32.2158)" fill="#5D2FFF"/>
<circle cx="20.0608" cy="17.9493" r="7.73435" transform="rotate(25.4262 20.0608 17.9493)" stroke="url(#paint0_linear_20_40)" stroke-width="7.38721"/>
<rect x="31.3785" y="3.6828" width="7.33167" height="20.7294" rx="3.27703" transform="rotate(25.4262 31.3785 3.6828)" fill="#7C57FD"/>
<mask id="path-5-inside-1_20_40" fill="white">
<path d="M30.3818 22.8559C29.6159 24.4669 28.4835 25.8763 27.0752 26.9713C25.6669 28.0662 24.0218 28.8162 22.2716 29.1613C20.5215 29.5065 18.7148 29.437 16.9963 28.9587C15.2777 28.4803 13.695 27.6063 12.3749 26.4066C11.0547 25.2068 10.0338 23.7147 9.39373 22.0496C8.75369 20.3845 8.51233 18.5927 8.68898 16.8176C8.86564 15.0425 9.45539 13.3334 10.411 11.8271C11.3667 10.3208 12.6617 9.05916 14.1924 8.14313L17.9737 14.4617C17.4293 14.7875 16.9687 15.2362 16.6288 15.7719C16.2889 16.3076 16.0792 16.9155 16.0163 17.5468C15.9535 18.1781 16.0393 18.8154 16.267 19.4076C16.4946 19.9998 16.8577 20.5305 17.3272 20.9572C17.7968 21.3838 18.3597 21.6947 18.9709 21.8648C19.5821 22.035 20.2246 22.0596 20.8471 21.9369C21.4695 21.8142 22.0546 21.5474 22.5555 21.158C23.0563 20.7686 23.4591 20.2673 23.7315 19.6943L30.3818 22.8559Z"/>
</mask>
<path d="M30.3818 22.8559C29.6159 24.4669 28.4835 25.8763 27.0752 26.9713C25.6669 28.0662 24.0218 28.8162 22.2716 29.1613C20.5215 29.5065 18.7148 29.437 16.9963 28.9587C15.2777 28.4803 13.695 27.6063 12.3749 26.4066C11.0547 25.2068 10.0338 23.7147 9.39373 22.0496C8.75369 20.3845 8.51233 18.5927 8.68898 16.8176C8.86564 15.0425 9.45539 13.3334 10.411 11.8271C11.3667 10.3208 12.6617 9.05916 14.1924 8.14313L17.9737 14.4617C17.4293 14.7875 16.9687 15.2362 16.6288 15.7719C16.2889 16.3076 16.0792 16.9155 16.0163 17.5468C15.9535 18.1781 16.0393 18.8154 16.267 19.4076C16.4946 19.9998 16.8577 20.5305 17.3272 20.9572C17.7968 21.3838 18.3597 21.6947 18.9709 21.8648C19.5821 22.035 20.2246 22.0596 20.8471 21.9369C21.4695 21.8142 22.0546 21.5474 22.5555 21.158C23.0563 20.7686 23.4591 20.2673 23.7315 19.6943L30.3818 22.8559Z" stroke="#7C57FD" stroke-width="11.7751" mask="url(#path-5-inside-1_20_40)"/>
<path d="M4 6.47078C4 5.85727 4.49735 5.35992 5.11086 5.35992H8.24903C8.86254 5.35992 9.35989 5.85727 9.35989 6.47078V10.7198H5.11086C4.49735 10.7198 4 10.2225 4 9.60896V6.47078Z" fill="#5D2FFF"/>
<path d="M10.1929 1.11086C10.1929 0.497348 10.6903 0 11.3038 0H14.442C15.0555 0 15.5528 0.497348 15.5528 1.11086V5.35989H11.3038C10.6903 5.35989 10.1929 4.86254 10.1929 4.24903V1.11086Z" fill="#5D2FFF"/>
<defs>
<linearGradient id="paint0_linear_20_40" x1="20.4773" y1="15.9359" x2="25.2818" y2="15.8248" gradientUnits="userSpaceOnUse">
<stop stop-color="#7C57FD"/>
<stop offset="1" stop-color="#5D2FFF"/>
</linearGradient>
</defs>
</svg>
